<svg xmlns="http://www.w3.org/2000/svg" xmlns:xlink="http://www.w3.org/1999/xlink" version="1.1" x="0px" y="0px" height="24" width="24" fill="#5A162E" viewBox="0 0 16 16" xml:space="preserve"><path d="M8,16c-4.411,0-8-3.589-8-8s3.589-8,8-8s8,3.589,8,8S12.411,16,8,16z M8,1C4.14,1,1,4.14,1,8c0,3.859,3.14,7,7,7  c3.859,0,7-3.141,7-7C15,4.14,11.859,1,8,1z"/><path d="M8,16c-2.243,0-4-3.514-4-8c0-4.486,1.757-8,4-8s4,3.514,4,8C12,12.486,10.243,16,8,16z M8,1C6.581,1,5,3.875,5,8  s1.581,7,3,7s3-2.875,3-7S9.419,1,8,1z"/><path d="M15.005,4.935c0,0.276-0.219,0.5-0.486,0.5H1.482c-0.269,0-0.487-0.224-0.487-0.5l0,0c0-0.276,0.218-0.5,0.487-0.5h13.037  C14.786,4.435,15.005,4.658,15.005,4.935L15.005,4.935z"/><path d="M15.005,10.935c0,0.276-0.219,0.5-0.486,0.5H1.482c-0.269,0-0.487-0.224-0.487-0.5l0,0c0-0.276,0.218-0.5,0.487-0.5h13.037  C14.786,10.435,15.005,10.658,15.005,10.935L15.005,10.935z"/></svg>